<svg width="115" height="120" viewBox="0 0 115 120" fill="none" xmlns="http://www.w3.org/2000/svg">
<path d="M63.8446 35.38L61.7526 36.1265C61.3139 36.283 60.8958 35.8503 61.0659 35.4173L61.5555 34.1728C61.9799 33.0969 62.9639 32.3307 64.1148 32.2209C65.2069 32.1169 65.4644 32.683 65.4215 33.3316C65.3595 34.2661 64.7268 35.0656 63.8446 35.38ZM114.22 117.995L111.57 114.406C111.112 113.786 110.642 113.174 110.133 112.595C107.787 109.924 104.44 94.1471 104.44 94.1471C106.14 83.9375 99.8226 64.7289 99.8226 64.7289C99.0103 47.7111 86.635 34.8862 86.635 34.8862C85.721 33.9285 81.7008 34.7945 79.256 35.4359C78.9905 35.5054 78.8379 35.1485 79.07 35.0018C83.2475 32.3567 84.2061 29.479 84.2061 29.479C81.6817 29.8579 79.0986 28.9541 77.7474 28.3624C77.323 28.1767 77.2626 27.6027 77.6346 27.3282C81.2955 24.6273 85.1169 19.0227 85.1169 19.0227C88.7015 13.3091 80.9251 11.2442 80.9251 11.2442C73.8767 9.78636 65.2466 7.62939e-06 65.2466 7.62939e-06C63.7285 6.13775 76.0036 15.8637 76.0036 15.8637C77.5805 18.172 75.5776 19.2061 75.5776 19.2061C72.9197 19.6333 69.5815 21.7294 68.2478 22.6265C67.8774 22.8763 67.4371 22.9954 66.9888 22.9824C65.1878 22.9296 63.2707 23.5588 61.7033 24.2684C60.163 24.9657 58.7911 25.9638 57.5401 27.1005C54.0763 30.2459 46.7767 29.1727 46.7767 29.1727C41.5501 17.8685 34.0756 15.8637 34.0756 15.8637C40.3944 25.5268 40.3356 27.2909 41.8553 31.7875C43.3718 36.2839 51.331 37.9879 51.331 37.9879C50.4806 41.5737 44.893 45.8267 44.893 45.8267C46.9564 52.6343 53.7632 53.0009 53.7632 53.0009C61.3584 47.9162 67.4641 46.1466 67.6533 46.0948C65.8395 47.2021 64.3087 48.8747 63.4106 49.9808C62.9051 50.604 62.5935 51.3588 62.5013 52.1559C61.9911 56.5412 58.017 60.03 58.017 60.03C55.5197 61.9645 44.7516 65.0062 39.9382 66.3008C38.5234 66.6817 37.1182 67.1045 35.7304 67.5777C16.7376 74.0506 8.06935 69.7149 8.06935 69.7149C5.05415 67.0593 15.5819 55.1699 15.7234 55.0084C15.3864 55.148 -4.9279 70.99 1.95327 73.1587C16.2607 77.6668 24.9623 75.6693 24.9623 75.6693C23.352 77.9438 22.4984 80.294 22.0469 82.2307C21.6034 84.1386 21.5303 86.1126 21.7862 88.0553C23.0373 97.5383 18.4003 100.63 18.4003 100.63C11.8371 96.0104 12.0805 104.927 12.0805 104.927C12.8082 107.843 7.52539 120 7.52539 120H19.9391C15.3196 115.137 20.0996 105.979 20.0996 105.979C31.9296 107.924 33.9548 96.6614 33.9548 96.6614C38.7348 84.8294 41.9761 83.612 41.9761 83.612C40.0304 86.1262 38.6522 93.9869 38.6522 93.9869C50.9622 92.9969 49.0992 96.2899 47.9674 97.5582C47.3045 98.3024 46.675 99.075 46.0614 99.8613L42.3004 104.684C49.7589 111.764 47.9849 117.188 46.8912 119.175C46.6877 119.547 46.9564 120 47.3792 120H59.3491C59.8864 120 60.2059 119.4 59.9071 118.954L58.0456 116.184C57.5321 115.419 56.8725 114.758 56.1031 114.25C52.199 111.67 50.8859 105.654 50.8859 105.654C57.7007 104.91 61.4728 102.905 63.2564 101.618C64.1355 100.983 64.3405 99.7644 63.7333 98.8675C61.3934 95.4105 56.4782 93.0129 56.4782 93.0129C57.6752 91.2516 55.0889 83.7274 55.0237 83.5349C55.0968 83.6778 57.6132 88.2566 67.9013 99.9818C75.4011 108.532 75.3074 115.119 74.654 118.158C74.4521 119.107 75.1818 120 76.1514 120H86.3123C87.1421 120 87.6683 119.112 87.2693 118.384L86.484 116.949C85.872 115.834 85.0374 114.86 84.0439 114.067C79.2226 110.22 77.7824 102.008 77.7824 102.008C78.9174 93.4179 77.1354 83.4504 77.1354 83.4504C80.4577 89.5286 80.2956 93.0129 80.2956 93.0129C88.4806 94.3087 96.9056 78.7487 96.9056 78.7487C97.6336 82.6406 95.8517 86.4479 95.8517 86.4479C91.7997 94.1471 97.8769 97.0664 97.8769 97.0664C97.8769 101.117 103.711 112.301 103.711 112.301C104.34 114.133 103.797 117.221 103.425 118.875C103.294 119.451 103.733 120 104.324 120H113.209C114.24 120 114.833 118.825 114.22 117.995Z" fill="#5BC036"/>
<path d="M31.7092 47.8393C31.7092 47.8393 24.6605 50.149 22.9592 54.7074C21.2578 59.266 15.364 55.1936 15.364 55.1936C15.364 55.1936 19.9216 44.375 31.7092 47.8393Z" fill="#5BC036"/>
</svg>
