<svg width="151" height="120" viewBox="0 0 151 88" fill="none" xmlns="http://www.w3.org/2000/svg">
<path d="M133.013 20.8678C133.088 20.4599 133.341 20.0776 133.974 19.9378C135.047 19.7013 136.124 20.3498 136.507 21.3793L136.732 21.98C136.988 22.66 136.323 23.3241 135.643 23.0685L133.943 22.43C133.306 22.191 132.888 21.5372 133.013 20.8678ZM150.216 34.9145C147.523 32.8773 143.78 26.8986 143.78 26.8986C141.415 21.5765 138.329 19.3411 138.329 19.3411C132.601 16.7581 127.778 11.2451 125.869 8.85583C125.354 8.21172 124.939 7.49458 124.605 6.73999C122.637 2.26425 120.209 3.86143 118.949 5.19492C118.275 5.9052 117.327 6.28093 116.347 6.25035C112.844 6.13956 104.629 5.48952 96.945 1.9968C86.8274 -2.60408 78.4851 3.83585 78.4851 3.83585C42.0956 -3.91665 26.0254 11.1951 26.0254 11.1951C-7.082 39.7544 1.50058 84.0858 1.50058 84.0858C1.62537 87.1515 10.0333 87.6417 15.0624 87.6601C16.5599 87.665 17.3773 85.926 16.4258 84.7744L13.7396 81.5289C12.8036 80.3982 12.9285 78.7343 14.0142 77.7501C25.0583 67.7638 34.2555 48.4266 34.2555 48.4266C34.6954 52.2832 32.9452 57.1874 32.9452 57.1874C64.8234 59.3788 77.1716 43.611 77.1716 43.611C76.0329 48.6042 69.3783 54.9963 69.3783 54.9963C71.0412 80.668 84.968 87.5899 84.968 87.5899H100.121C100.732 84.5231 96.1775 82.8579 96.1775 82.8579C96.1775 82.8579 88.0317 84.7867 92.4119 61.4812C96.7921 38.1788 104.498 37.28 104.498 37.28C110.672 37.608 113.692 36.8188 113.692 36.8188C121.314 32.9422 133.6 39.6449 133.6 39.6449C139.05 42.6673 146.669 39.5809 146.669 39.5809C151.991 37.6732 150.216 34.9145 150.216 34.9145Z" fill="#D02B24"/>
<path d="M102.484 41.5205C100.145 43.8473 95.7505 49.3861 95.1943 58.5926C95.1123 59.9612 95.7798 61.2691 96.9509 61.9772C100.789 64.2966 109.482 70.4279 110.702 78.9953C110.863 80.1235 112.307 80.4757 112.968 79.5471C116.274 74.9221 120.692 63.1659 105.043 41.7165C104.431 40.8801 103.219 40.7913 102.484 41.5205Z" fill="#D02B24"/>
<path d="M32.9744 58.6332C32.9744 58.6332 47.6879 60.0139 57.6076 56.6626C57.6076 56.6626 63.0582 70.4609 61.3513 78.543C61.3513 78.543 73.503 85.1793 67.4588 85.6387H55.4232C54.8665 85.6387 54.3257 85.4662 53.8719 85.146C50.3762 82.6728 35.1219 71.2442 32.9744 58.6332Z" fill="#D02B24"/>
</svg>
